<svg width="883.6px" height="155.6px" xmlns="http://www.w3.org/2000/svg" viewBox="-191.80001220703122 -2.808789062499997 883.6000244140624 155.617578125" style="background: rgba(0, 0, 0, 0)" preserveAspectRatio="xMidYMid"><defs><linearGradient id="editing-gradient-gradient" x1="0.17860619515673037" x2="0.8213938048432696" y1="0.8830222215594891" y2="0.11697777844051094" gradientUnits="objectBoundingBox"><stop offset="0" stop-color="#ff00ff"></stop><stop offset="1" stop-color="#00ffff"></stop></linearGradient></defs><g><g transform="matrix(1.2,0,0,1.5,-144.6,159.8)"><path d="M 17.5 -57.2 L 17.5 -59.4 L 31 -59.4 L 31 -59.4 Q 34.1 -59.4 36.2 -61.4 L 36.2 -61.4 L 36.2 -61.4 Q 38.4 -63.4 38.4 -67.1 L 38.4 -67.1 L 38.4 -67.1 Q 38.4 -69.8 36.1 -72 L 36.1 -72 L 36.1 -72 Q 33.9 -74.2 31 -74.2 L 31 -74.2 L 11.7 -74.2 L 11.7 -33.7 L 9.5 -33.7 L 9.5 -76.4 L 31 -76.4 L 31 -76.4 Q 34.8 -76.4 37.7 -73.6 L 37.7 -73.6 L 37.7 -73.6 Q 40.6 -70.8 40.6 -67.1 L 40.6 -67.1 L 40.6 -67.1 Q 40.6 -62.6 37.8 -59.9 L 37.8 -59.9 L 37.8 -59.9 Q 35 -57.2 31 -57.2 L 31 -57.2 L 17.5 -57.2 Z M 17.5 -52.7 L 17.5 -54.9 L 31 -54.9 L 31 -54.9 Q 35.9 -54.9 39.4 -58.4 L 39.4 -58.4 L 39.4 -58.4 Q 42.9 -61.8 42.9 -67.1 L 42.9 -67.1 L 42.9 -67.1 Q 42.9 -71.7 39.3 -75.2 L 39.3 -75.2 L 39.3 -75.2 Q 35.7 -78.7 31 -78.7 L 31 -78.7 L 7.2 -78.7 L 7.2 -33.7 L 5 -33.7 L 5 -80.9 L 31 -80.9 L 31 -80.9 Q 34.7 -80.9 38 -79 L 38 -79 L 38 -79 Q 41.3 -77.1 43.2 -73.9 L 43.2 -73.9 L 43.2 -73.9 Q 45.1 -70.7 45.1 -67.1 L 45.1 -67.1 L 45.1 -67.1 Q 45.1 -61 41 -56.8 L 41 -56.8 L 41 -56.8 Q 36.8 -52.7 31 -52.7 L 31 -52.7 L 17.5 -52.7 Z M 17.5 -48.2 L 17.5 -50.4 L 31 -50.4 L 31 -50.4 Q 35.4 -50.4 39.1 -52.6 L 39.1 -52.6 L 39.1 -52.6 Q 42.9 -54.7 45.1 -58.6 L 45.1 -58.6 L 45.1 -58.6 Q 47.4 -62.5 47.4 -67.1 L 47.4 -67.1 L 47.4 -67.1 Q 47.4 -71.3 45.2 -75 L 45.2 -75 L 45.2 -75 Q 42.9 -78.7 39.1 -81 L 39.1 -81 L 39.1 -81 Q 35.4 -83.2 31 -83.2 L 31 -83.2 L 2.7 -83.2 L 2.7 -33.7 L 0.5 -33.7 L 0.5 -85.4 L 31 -85.4 L 31 -85.4 Q 35.9 -85.4 40.2 -82.9 L 40.2 -82.9 L 40.2 -82.9 Q 44.5 -80.4 47.1 -76.2 L 47.1 -76.2 L 47.1 -76.2 Q 49.6 -71.9 49.6 -67.1 L 49.6 -67.1 L 49.6 -67.1 Q 49.6 -61.6 47.2 -57.3 L 47.2 -57.3 L 47.2 -57.3 Q 44.9 -53.1 40.8 -50.7 L 40.8 -50.7 L 46.6 -33.7 L 44.2 -33.7 L 38.6 -49.7 L 38.6 -49.7 Q 37.4 -49.2 36.7 -49 L 36.7 -49 L 42 -33.7 L 39.6 -33.7 L 34.5 -48.5 L 34.5 -48.5 Q 34.2 -48.4 32.5 -48.2 L 32.5 -48.2 L 37.3 -33.7 L 35 -33.7 L 30.2 -48.2 L 28.1 -48.2 L 32.7 -33.7 L 30.3 -33.7 L 25.7 -48.2 L 17.5 -48.2 Z M 16.2 -69.7 L 16.2 -33.7 L 14 -33.7 L 14 -71.9 L 31 -71.9 L 31 -71.9 Q 33.1 -71.9 34.6 -70.5 L 34.6 -70.5 L 34.6 -70.5 Q 36.1 -69.1 36.1 -67.1 L 36.1 -67.1 L 36.1 -67.1 Q 36.1 -61.7 31 -61.7 L 31 -61.7 L 17.5 -61.7 L 17.5 -63.9 L 31 -63.9 L 31 -63.9 Q 32.4 -63.9 33.1 -64.6 L 33.1 -64.6 L 33.1 -64.6 Q 33.9 -65.3 33.9 -67.1 L 33.9 -67.1 L 33.9 -67.1 Q 33.9 -68.2 33.1 -69 L 33.1 -69 L 33.1 -69 Q 32.2 -69.7 31 -69.7 L 31 -69.7 L 16.2 -69.7 Z M 86.4 -33.7 L 86.4 -55.9 L 86.4 -55.9 Q 86.4 -59.9 83.9 -62.1 L 83.9 -62.1 L 83.9 -62.1 Q 81.5 -64.2 77.4 -64.2 L 77.4 -64.2 L 77.4 -64.2 Q 74 -64.2 71.5 -61.9 L 71.5 -61.9 L 71.5 -61.9 Q 69 -59.5 69 -56.2 L 69 -56.2 L 69 -56.2 Q 69 -54.3 69.5 -52.8 L 69.5 -52.8 L 69.5 -52.8 Q 70 -51.3 70.9 -50.4 L 70.9 -50.4 L 70.9 -50.4 Q 71.7 -49.4 72.9 -48.7 L 72.9 -48.7 L 72.9 -48.7 Q 74.1 -48.1 75.4 -47.8 L 75.4 -47.8 L 75.4 -47.8 Q 76.7 -47.5 78.2 -47.5 L 78.2 -47.5 L 78.2 -47.5 Q 81.7 -47.5 84.7 -49.3 L 84.7 -49.3 L 84.7 -47 L 84.7 -47 Q 81.6 -45.4 78.1 -45.4 L 78.1 -45.4 L 78.1 -45.4 Q 75.9 -45.4 73.9 -46 L 73.9 -46 L 73.9 -46 Q 71.9 -46.7 70.3 -47.9 L 70.3 -47.9 L 70.3 -47.9 Q 68.7 -49.1 67.7 -51.3 L 67.7 -51.3 L 67.7 -51.3 Q 66.8 -53.4 66.8 -56.2 L 66.8 -56.2 L 66.8 -56.2 Q 66.8 -60.5 69.8 -63.5 L 69.8 -63.5 L 69.8 -63.5 Q 72.8 -66.5 77.4 -66.5 L 77.4 -66.5 L 77.4 -66.5 Q 82.4 -66.5 85.5 -63.7 L 85.5 -63.7 L 85.5 -63.7 Q 88.6 -60.8 88.6 -55.9 L 88.6 -55.9 L 88.6 -33.7 L 86.4 -33.7 Z M 93.1 -55.9 L 93.1 -55.9 L 93.1 -33.7 L 90.9 -33.7 L 90.9 -55.9 L 90.9 -55.9 Q 90.9 -61.8 87.1 -65.3 L 87.1 -65.3 L 87.1 -65.3 Q 83.3 -68.7 77.4 -68.7 L 77.4 -68.7 L 77.4 -68.7 Q 71.9 -68.7 68.2 -65.1 L 68.2 -65.1 L 68.2 -65.1 Q 64.5 -61.4 64.5 -56.2 L 64.5 -56.2 L 64.5 -56.2 Q 64.5 -53 65.6 -50.5 L 65.6 -50.5 L 65.6 -50.5 Q 66.7 -47.9 68.6 -46.4 L 68.6 -46.4 L 68.6 -46.4 Q 70.5 -44.9 72.9 -44.1 L 72.9 -44.1 L 72.9 -44.1 Q 75.3 -43.3 77.9 -43.3 L 77.9 -43.3 L 77.9 -43.3 Q 81.5 -43.3 84.7 -44.9 L 84.7 -44.9 L 84.7 -42.6 L 84.7 -42.6 Q 81.3 -41.2 77.9 -41.2 L 77.9 -41.2 L 77.9 -41.2 Q 74.8 -41.2 72 -42.1 L 72 -42.1 L 72 -42.1 Q 69.2 -43.1 67 -44.9 L 67 -44.9 L 67 -44.9 Q 64.8 -46.7 63.5 -49.6 L 63.5 -49.6 L 63.5 -49.6 Q 62.3 -52.6 62.3 -56.2 L 62.3 -56.2 L 62.3 -56.2 Q 62.3 -62.3 66.6 -66.7 L 66.6 -66.7 L 66.6 -66.7 Q 71 -71 77.4 -71 L 77.4 -71 L 77.4 -71 Q 81.9 -71 85.5 -69.2 L 85.5 -69.2 L 85.5 -69.2 Q 89 -67.3 91.1 -63.9 L 91.1 -63.9 L 91.1 -63.9 Q 93.1 -60.4 93.1 -55.9 Z M 97.6 -55.9 L 97.6 -55.9 L 97.6 -33.7 L 95.4 -33.7 L 95.4 -55.9 L 95.4 -55.9 Q 95.4 -61 93 -65 L 93 -65 L 93 -65 Q 90.7 -69 86.6 -71.1 L 86.6 -71.1 L 86.6 -71.1 Q 82.5 -73.2 77.4 -73.2 L 77.4 -73.2 L 77.4 -73.2 Q 72.5 -73.2 68.5 -71 L 68.5 -71 L 68.5 -71 Q 64.5 -68.7 62.3 -64.7 L 62.3 -64.7 L 62.3 -64.7 Q 60 -60.8 60 -56.2 L 60 -56.2 L 60 -56.2 Q 60 -52.2 61.5 -48.9 L 61.5 -48.9 L 61.5 -48.9 Q 63 -45.6 65.4 -43.5 L 65.4 -43.5 L 65.4 -43.5 Q 67.9 -41.3 71.1 -40.2 L 71.1 -40.2 L 71.1 -40.2 Q 74.3 -39 77.7 -39 L 77.7 -39 L 77.7 -39 Q 81.3 -39 84.7 -40.5 L 84.7 -40.5 L 84.7 -38.2 L 84.7 -38.2 Q 81.1 -36.8 77.7 -36.8 L 77.7 -36.8 L 77.7 -36.8 Q 72.3 -36.8 67.7 -39.3 L 67.7 -39.3 L 67.7 -39.3 Q 63.2 -41.7 60.5 -46.2 L 60.5 -46.2 L 60.5 -46.2 Q 57.8 -50.7 57.8 -56.2 L 57.8 -56.2 L 57.8 -56.2 Q 57.8 -60.1 59.3 -63.7 L 59.3 -63.7 L 59.3 -63.7 Q 60.8 -67.2 63.4 -69.8 L 63.4 -69.8 L 63.4 -69.8 Q 66 -72.4 69.6 -74 L 69.6 -74 L 69.6 -74 Q 73.3 -75.5 77.4 -75.5 L 77.4 -75.5 L 77.4 -75.5 Q 83.1 -75.5 87.7 -73.1 L 87.7 -73.1 L 87.7 -73.1 Q 92.3 -70.6 95 -66.1 L 95 -66.1 L 95 -66.1 Q 97.6 -61.6 97.6 -55.9 Z M 102.1 -55.9 L 102.1 -55.9 L 102.1 -33.7 L 99.9 -33.7 L 99.9 -55.9 L 99.9 -55.9 Q 99.9 -62.2 96.9 -67.3 L 96.9 -67.3 L 96.9 -67.3 Q 94 -72.3 88.8 -75 L 88.8 -75 L 88.8 -75 Q 83.7 -77.7 77.4 -77.7 L 77.4 -77.7 L 77.4 -77.7 Q 71.3 -77.7 66.3 -74.8 L 66.3 -74.8 L 66.3 -74.8 Q 61.3 -71.9 58.4 -67 L 58.4 -67 L 58.4 -67 Q 55.5 -62 55.5 -56.2 L 55.5 -56.2 L 55.5 -56.2 Q 55.5 -52.3 56.7 -48.9 L 56.7 -48.9 L 56.7 -48.9 Q 58 -45.4 60.1 -42.9 L 60.1 -42.9 L 60.1 -42.9 Q 62.3 -40.3 65.1 -38.4 L 65.1 -38.4 L 65.1 -38.4 Q 67.9 -36.5 71.1 -35.6 L 71.1 -35.6 L 71.1 -35.6 Q 74.3 -34.6 77.7 -34.6 L 77.7 -34.6 L 77.7 -34.6 Q 81.4 -34.6 84.7 -36 L 84.7 -36 L 84.7 -33.7 L 84.7 -33.7 Q 81.2 -32.5 77.5 -32.5 L 77.5 -32.5 L 77.5 -32.5 Q 73.8 -32.5 70.2 -33.5 L 70.2 -33.5 L 70.2 -33.5 Q 66.6 -34.6 63.6 -36.7 L 63.6 -36.7 L 63.6 -36.7 Q 60.5 -38.7 58.2 -41.6 L 58.2 -41.6 L 58.2 -41.6 Q 55.9 -44.4 54.6 -48.2 L 54.6 -48.2 L 54.6 -48.2 Q 53.3 -52 53.3 -56.2 L 53.3 -56.2 L 53.3 -56.2 Q 53.3 -61 55.1 -65.4 L 55.1 -65.4 L 55.1 -65.4 Q 56.9 -69.8 60.1 -73 L 60.1 -73 L 60.1 -73 Q 63.3 -76.2 67.8 -78.1 L 67.8 -78.1 L 67.8 -78.1 Q 72.3 -80 77.4 -80 L 77.4 -80 L 77.4 -80 Q 82.6 -80 87.1 -78.2 L 87.1 -78.2 L 87.1 -78.2 Q 91.7 -76.5 95 -73.4 L 95 -73.4 L 95 -73.4 Q 98.3 -70.3 100.2 -65.7 L 100.2 -65.7 L 100.2 -65.7 Q 102.1 -61.2 102.1 -55.9 Z M 143.2 -78.7 L 143.2 -51.8 L 141 -55.9 L 141 -78.7 L 143.2 -78.7 Z M 147.7 -78.7 L 147.7 -44.1 L 145.5 -47.9 L 145.5 -78.7 L 147.7 -78.7 Z M 116.7 -33.7 L 116.7 -60.5 L 119 -56.4 L 119 -33.7 L 116.7 -33.7 Z M 112.2 -33.7 L 112.2 -68.6 L 114.5 -64.5 L 114.5 -33.7 L 112.2 -33.7 Z M 139 -33.7 L 113 -78.7 L 115.6 -78.7 L 141.7 -33.7 L 139 -33.7 Z M 144.3 -33.7 L 118.3 -78.7 L 121 -78.7 L 147 -33.7 L 144.3 -33.7 Z M 149.5 -33.7 L 123.6 -78.7 L 126.2 -78.7 L 150 -37.6 L 150 -78.7 L 152.2 -78.7 L 152.2 -33.7 L 149.5 -33.7 Z M 133.8 -33.7 L 110 -74.8 L 110 -33.7 L 107.7 -33.7 L 107.7 -78.7 L 110.4 -78.7 L 136.4 -33.7 L 133.8 -33.7 Z M 184 -47.2 L 171.6 -47.2 L 171.6 -65.2 L 171.6 -65.2 Q 171.6 -65.2 184 -65.2 L 184 -65.2 L 184 -65.2 Q 187.5 -65.2 190 -62.6 L 190 -62.6 L 190 -62.6 Q 192.5 -59.9 192.5 -56.2 L 192.5 -56.2 L 192.5 -56.2 Q 192.5 -52.4 190 -49.8 L 190 -49.8 L 190 -49.8 Q 187.5 -47.2 184 -47.2 L 184 -47.2 Z M 173.8 -62.9 L 173.8 -49.4 L 184 -49.4 L 184 -49.4 Q 186.6 -49.4 188.4 -51.4 L 188.4 -51.4 L 188.4 -51.4 Q 190.2 -53.4 190.2 -56.2 L 190.2 -56.2 L 190.2 -56.2 Q 190.2 -59 188.4 -61 L 188.4 -61 L 188.4 -61 Q 186.6 -62.9 184 -62.9 L 184 -62.9 L 173.8 -62.9 Z M 169.3 -67.4 L 169.3 -44.9 L 184 -44.9 L 184 -44.9 Q 188.5 -44.9 191.6 -48.2 L 191.6 -48.2 L 191.6 -48.2 Q 194.8 -51.5 194.8 -56.2 L 194.8 -56.2 L 194.8 -56.2 Q 194.8 -60.9 191.6 -64.2 L 191.6 -64.2 L 191.6 -64.2 Q 188.5 -67.4 184 -67.4 L 184 -67.4 L 169.3 -67.4 Z M 184 -42.7 L 167.1 -42.7 L 167.1 -69.7 L 184 -69.7 L 184 -69.7 Q 189.4 -69.7 193.2 -65.7 L 193.2 -65.7 L 193.2 -65.7 Q 197.1 -61.8 197.1 -56.2 L 197.1 -56.2 L 197.1 -56.2 Q 197.1 -50.6 193.3 -46.6 L 193.3 -46.6 L 193.3 -46.6 Q 189.4 -42.7 184 -42.7 L 184 -42.7 Z M 164.8 -71.9 L 164.8 -40.4 L 184 -40.4 L 184 -40.4 Q 188.2 -40.4 191.7 -42.5 L 191.7 -42.5 L 191.7 -42.5 Q 195.2 -44.6 197.3 -48.3 L 197.3 -48.3 L 197.3 -48.3 Q 199.4 -51.9 199.4 -56.2 L 199.4 -56.2 L 199.4 -56.2 Q 199.4 -60.5 197.3 -64.1 L 197.3 -64.1 L 197.3 -64.1 Q 195.2 -67.7 191.7 -69.8 L 191.7 -69.8 L 191.7 -69.8 Q 188.1 -71.9 184 -71.9 L 184 -71.9 L 164.8 -71.9 Z M 184 -38.2 L 162.6 -38.2 L 162.6 -74.2 L 184 -74.2 L 184 -74.2 Q 188.8 -74.2 192.8 -71.8 L 192.8 -71.8 L 192.8 -71.8 Q 196.9 -69.4 199.3 -65.2 L 199.3 -65.2 L 199.3 -65.2 Q 201.7 -61.1 201.7 -56.2 L 201.7 -56.2 L 201.7 -56.2 Q 201.7 -51.3 199.3 -47.2 L 199.3 -47.2 L 199.3 -47.2 Q 196.9 -43 192.8 -40.6 L 192.8 -40.6 L 192.8 -40.6 Q 188.8 -38.2 184 -38.2 L 184 -38.2 Z M 160.3 -76.4 L 160.3 -35.9 L 184 -35.9 L 184 -35.9 Q 189.4 -35.9 194 -38.6 L 194 -38.6 L 194 -38.6 Q 198.6 -41.3 201.3 -46 L 201.3 -46 L 201.3 -46 Q 204 -50.7 204 -56.2 L 204 -56.2 L 204 -56.2 Q 204 -61.7 201.3 -66.4 L 201.3 -66.4 L 201.3 -66.4 Q 198.6 -71 194 -73.7 L 194 -73.7 L 194 -73.7 Q 189.4 -76.4 184 -76.4 L 184 -76.4 L 160.3 -76.4 Z M 184 -33.7 L 184 -33.7 L 158.1 -33.7 L 158.1 -78.7 L 184 -78.7 L 184 -78.7 Q 190 -78.7 195.1 -75.7 L 195.1 -75.7 L 195.1 -75.7 Q 200.3 -72.7 203.3 -67.5 L 203.3 -67.5 L 203.3 -67.5 Q 206.4 -62.3 206.4 -56.2 L 206.4 -56.2 L 206.4 -56.2 Q 206.4 -51.7 204.6 -47.5 L 204.6 -47.5 L 204.6 -47.5 Q 202.8 -43.3 199.7 -40.3 L 199.7 -40.3 L 199.7 -40.3 Q 196.7 -37.2 192.6 -35.5 L 192.6 -35.5 L 192.6 -35.5 Q 188.5 -33.7 184 -33.7 Z M 228.6 -62.5 L 228.6 -62.5 L 228.6 -62.5 Q 226 -59.9 226 -56.2 L 226 -56.2 L 226 -56.2 Q 226 -52.5 228.6 -49.8 L 228.6 -49.8 L 228.6 -49.8 Q 231.2 -47.2 235 -47.2 L 235 -47.2 L 235 -47.2 Q 238.7 -47.2 241.3 -49.8 L 241.3 -49.8 L 241.3 -49.8 Q 244 -52.5 244 -56.2 L 244 -56.2 L 244 -56.2 Q 244 -59.9 241.3 -62.5 L 241.3 -62.5 L 241.3 -62.5 Q 238.7 -65.2 235 -65.2 L 235 -65.2 L 235 -65.2 Q 231.2 -65.2 228.6 -62.5 Z M 227 -48.2 L 227 -48.2 L 227 -48.2 Q 223.7 -51.5 223.7 -56.2 L 223.7 -56.2 L 223.7 -56.2 Q 223.7 -60.8 227 -64.1 L 227 -64.1 L 227 -64.1 Q 230.3 -67.4 235 -67.4 L 235 -67.4 L 235 -67.4 Q 239.6 -67.4 242.9 -64.1 L 242.9 -64.1 L 242.9 -64.1 Q 246.2 -60.8 246.2 -56.2 L 246.2 -56.2 L 246.2 -56.2 Q 246.2 -51.5 242.9 -48.2 L 242.9 -48.2 L 242.9 -48.2 Q 239.6 -44.9 235 -44.9 L 235 -44.9 L 235 -44.9 Q 230.3 -44.9 227 -48.2 Z M 225.4 -65.7 L 225.4 -65.7 L 225.4 -65.7 Q 221.5 -61.7 221.5 -56.2 L 221.5 -56.2 L 221.5 -56.2 Q 221.5 -50.6 225.4 -46.7 L 225.4 -46.7 L 225.4 -46.7 Q 229.4 -42.7 235 -42.7 L 235 -42.7 L 235 -42.7 Q 240.5 -42.7 244.5 -46.7 L 244.5 -46.7 L 244.5 -46.7 Q 248.5 -50.6 248.5 -56.2 L 248.5 -56.2 L 248.5 -56.2 Q 248.5 -61.7 244.5 -65.7 L 244.5 -65.7 L 244.5 -65.7 Q 240.5 -69.7 235 -69.7 L 235 -69.7 L 235 -69.7 Q 229.4 -69.7 225.4 -65.7 Z M 221.3 -48.3 L 221.3 -48.3 L 221.3 -48.3 Q 219.2 -51.9 219.2 -56.2 L 219.2 -56.2 L 219.2 -56.2 Q 219.2 -60.5 221.3 -64.1 L 221.3 -64.1 L 221.3 -64.1 Q 223.4 -67.7 227 -69.8 L 227 -69.8 L 227 -69.8 Q 230.7 -71.9 235 -71.9 L 235 -71.9 L 235 -71.9 Q 239.2 -71.9 242.9 -69.8 L 242.9 -69.8 L 242.9 -69.8 Q 246.5 -67.7 248.6 -64.1 L 248.6 -64.1 L 248.6 -64.1 Q 250.7 -60.5 250.7 -56.2 L 250.7 -56.2 L 250.7 -56.2 Q 250.7 -51.9 248.6 -48.3 L 248.6 -48.3 L 248.6 -48.3 Q 246.5 -44.7 242.9 -42.5 L 242.9 -42.5 L 242.9 -42.5 Q 239.2 -40.4 235 -40.4 L 235 -40.4 L 235 -40.4 Q 230.7 -40.4 227 -42.5 L 227 -42.5 L 227 -42.5 Q 223.4 -44.7 221.3 -48.3 Z M 218.4 -63.2 L 218.4 -63.2 L 218.4 -63.2 Q 217 -59.8 217 -56.2 L 217 -56.2 L 217 -56.2 Q 217 -52.5 218.4 -49.2 L 218.4 -49.2 L 218.4 -49.2 Q 219.8 -45.9 222.2 -43.5 L 222.2 -43.5 L 222.2 -43.5 Q 224.6 -41 228 -39.6 L 228 -39.6 L 228 -39.6 Q 231.3 -38.2 235 -38.2 L 235 -38.2 L 235 -38.2 Q 238.6 -38.2 241.9 -39.6 L 241.9 -39.6 L 241.9 -39.6 Q 245.3 -41 247.7 -43.5 L 247.7 -43.5 L 247.7 -43.5 Q 250.1 -45.9 251.5 -49.2 L 251.5 -49.2 L 251.5 -49.2 Q 253 -52.5 253 -56.2 L 253 -56.2 L 253 -56.2 Q 253 -59.8 251.5 -63.2 L 251.5 -63.2 L 251.5 -63.2 Q 250.1 -66.5 247.7 -68.9 L 247.7 -68.9 L 247.7 -68.9 Q 245.3 -71.3 241.9 -72.8 L 241.9 -72.8 L 241.9 -72.8 Q 238.6 -74.2 235 -74.2 L 235 -74.2 L 235 -74.2 Q 231.3 -74.2 228 -72.8 L 228 -72.8 L 228 -72.8 Q 224.6 -71.3 222.2 -68.9 L 222.2 -68.9 L 222.2 -68.9 Q 219.8 -66.5 218.4 -63.2 Z M 216.3 -48.3 L 216.3 -48.3 L 216.3 -48.3 Q 214.7 -52.1 214.7 -56.2 L 214.7 -56.2 L 214.7 -56.2 Q 214.7 -60.3 216.3 -64.1 L 216.3 -64.1 L 216.3 -64.1 Q 217.9 -67.8 220.6 -70.5 L 220.6 -70.5 L 220.6 -70.5 Q 223.3 -73.2 227.1 -74.8 L 227.1 -74.8 L 227.1 -74.8 Q 230.8 -76.4 235 -76.4 L 235 -76.4 L 235 -76.4 Q 239.1 -76.4 242.8 -74.8 L 242.8 -74.8 L 242.8 -74.8 Q 246.6 -73.2 249.3 -70.5 L 249.3 -70.5 L 249.3 -70.5 Q 252 -67.8 253.6 -64.1 L 253.6 -64.1 L 253.6 -64.1 Q 255.2 -60.3 255.2 -56.2 L 255.2 -56.2 L 255.2 -56.2 Q 255.2 -52.1 253.6 -48.3 L 253.6 -48.3 L 253.6 -48.3 Q 252 -44.6 249.3 -41.9 L 249.3 -41.9 L 249.3 -41.9 Q 246.6 -39.2 242.8 -37.5 L 242.8 -37.5 L 242.8 -37.5 Q 239.1 -35.9 235 -35.9 L 235 -35.9 L 235 -35.9 Q 230.8 -35.9 227.1 -37.5 L 227.1 -37.5 L 227.1 -37.5 Q 223.3 -39.2 220.6 -41.9 L 220.6 -41.9 L 220.6 -41.9 Q 217.9 -44.6 216.3 -48.3 Z M 214.2 -64.9 L 214.2 -64.9 L 214.2 -64.9 Q 212.5 -60.7 212.5 -56.2 L 212.5 -56.2 L 212.5 -56.2 Q 212.5 -51.6 214.2 -47.5 L 214.2 -47.5 L 214.2 -47.5 Q 216 -43.3 219 -40.3 L 219 -40.3 L 219 -40.3 Q 222 -37.2 226.2 -35.5 L 226.2 -35.5 L 226.2 -35.5 Q 230.4 -33.7 235 -33.7 L 235 -33.7 L 235 -33.7 Q 239.5 -33.7 243.7 -35.5 L 243.7 -35.5 L 243.7 -35.5 Q 247.9 -37.2 250.9 -40.3 L 250.9 -40.3 L 250.9 -40.3 Q 253.9 -43.3 255.7 -47.5 L 255.7 -47.5 L 255.7 -47.5 Q 257.5 -51.6 257.5 -56.2 L 257.5 -56.2 L 257.5 -56.2 Q 257.5 -60.7 255.7 -64.9 L 255.7 -64.9 L 255.7 -64.9 Q 253.9 -69.1 250.9 -72.1 L 250.9 -72.1 L 250.9 -72.1 Q 247.9 -75.1 243.7 -76.9 L 243.7 -76.9 L 243.7 -76.9 Q 239.5 -78.7 235 -78.7 L 235 -78.7 L 235 -78.7 Q 230.4 -78.7 226.2 -76.9 L 226.2 -76.9 L 226.2 -76.9 Q 222 -75.1 219 -72.1 L 219 -72.1 L 219 -72.1 Q 216 -69.1 214.2 -64.9 Z M 212.2 -46.6 L 212.2 -46.6 L 212.2 -46.6 Q 210.2 -51.2 210.2 -56.2 L 210.2 -56.2 L 210.2 -56.2 Q 210.2 -61.2 212.2 -65.8 L 212.2 -65.8 L 212.2 -65.8 Q 214.1 -70.4 217.5 -73.7 L 217.5 -73.7 L 217.5 -73.7 Q 220.8 -77 225.3 -79 L 225.3 -79 L 225.3 -79 Q 229.9 -80.9 235 -80.9 L 235 -80.9 L 235 -80.9 Q 240 -80.9 244.6 -79 L 244.6 -79 L 244.6 -79 Q 249.1 -77 252.5 -73.7 L 252.5 -73.7 L 252.5 -73.7 Q 255.8 -70.4 257.7 -65.8 L 257.7 -65.8 L 257.7 -65.8 Q 259.7 -61.2 259.7 -56.2 L 259.7 -56.2 L 259.7 -56.2 Q 259.7 -51.2 257.7 -46.6 L 257.7 -46.6 L 257.7 -46.6 Q 255.8 -42 252.5 -38.7 L 252.5 -38.7 L 252.5 -38.7 Q 249.1 -35.4 244.6 -33.4 L 244.6 -33.4 L 244.6 -33.4 Q 240 -31.4 235 -31.4 L 235 -31.4 L 235 -31.4 Q 229.9 -31.4 225.3 -33.4 L 225.3 -33.4 L 225.3 -33.4 Q 220.8 -35.4 217.5 -38.7 L 217.5 -38.7 L 217.5 -38.7 Q 214.1 -42 212.2 -46.6 Z M 293.5 -61.8 L 293.5 -61.8 L 293.5 -33.7 L 291.2 -33.7 L 291.2 -61.8 L 291.2 -61.8 Q 291.2 -62.7 290.9 -63.4 L 290.9 -63.4 L 290.9 -63.4 Q 290.6 -64 290.2 -64.3 L 290.2 -64.3 L 290.2 -64.3 Q 289.7 -64.7 288.9 -64.9 L 288.9 -64.9 L 288.9 -64.9 Q 288.2 -65.1 287.5 -65.1 L 287.5 -65.1 L 287.5 -65.1 Q 286.7 -65.2 285.7 -65.2 L 285.7 -65.2 L 285.7 -65.2 Q 284.6 -65.2 283.9 -65.1 L 283.9 -65.1 L 283.9 -65.1 Q 283.2 -65.1 282.4 -64.9 L 282.4 -64.9 L 282.4 -64.9 Q 281.6 -64.7 281.2 -64.3 L 281.2 -64.3 L 281.2 -64.3 Q 280.7 -64 280.4 -63.4 L 280.4 -63.4 L 280.4 -63.4 Q 280.1 -62.7 280.1 -61.8 L 280.1 -61.8 L 280.1 -33.7 L 277.9 -33.7 L 277.9 -61.8 L 277.9 -61.8 Q 277.9 -67.4 285.7 -67.4 L 285.7 -67.4 L 285.7 -67.4 Q 293.5 -67.4 293.5 -61.8 Z M 298 -61.8 L 298 -61.8 L 298 -33.7 L 295.7 -33.7 L 295.7 -61.8 L 295.7 -61.8 Q 295.7 -65.8 292.9 -67.7 L 292.9 -67.7 L 292.9 -67.7 Q 290.1 -69.7 285.7 -69.7 L 285.7 -69.7 L 285.7 -69.7 Q 281.2 -69.7 278.4 -67.7 L 278.4 -67.7 L 278.4 -67.7 Q 275.6 -65.8 275.6 -61.8 L 275.6 -61.8 L 275.6 -33.7 L 273.4 -33.7 L 273.4 -61.8 L 273.4 -61.8 Q 273.4 -65.1 275 -67.4 L 275 -67.4 L 275 -67.4 Q 276.7 -69.8 279.5 -70.9 L 279.5 -70.9 L 279.5 -70.9 Q 282.2 -71.9 285.7 -71.9 L 285.7 -71.9 L 285.7 -71.9 Q 289.1 -71.9 291.9 -70.9 L 291.9 -70.9 L 291.9 -70.9 Q 294.6 -69.8 296.3 -67.4 L 296.3 -67.4 L 296.3 -67.4 Q 298 -65.1 298 -61.8 Z M 302.5 -61.8 L 302.5 -61.8 L 302.5 -33.7 L 300.2 -33.7 L 300.2 -61.8 L 300.2 -61.8 Q 300.2 -64.7 299.1 -67.1 L 299.1 -67.1 L 299.1 -67.1 Q 298 -69.5 296 -71 L 296 -71 L 296 -71 Q 294 -72.6 291.3 -73.4 L 291.3 -73.4 L 291.3 -73.4 Q 288.7 -74.2 285.7 -74.2 L 285.7 -74.2 L 285.7 -74.2 Q 282.6 -74.2 280 -73.4 L 280 -73.4 L 280 -73.4 Q 277.4 -72.6 275.4 -71 L 275.4 -71 L 275.4 -71 Q 273.4 -69.5 272.2 -67.1 L 272.2 -67.1 L 272.2 -67.1 Q 271.1 -64.7 271.1 -61.8 L 271.1 -61.8 L 271.1 -33.7 L 268.9 -33.7 L 268.9 -61.8 L 268.9 -61.8 Q 268.9 -65.2 270.2 -68 L 270.2 -68 L 270.2 -68 Q 271.5 -70.8 273.8 -72.6 L 273.8 -72.6 L 273.8 -72.6 Q 276.1 -74.4 279.1 -75.4 L 279.1 -75.4 L 279.1 -75.4 Q 282.2 -76.4 285.7 -76.4 L 285.7 -76.4 L 285.7 -76.4 Q 289.1 -76.4 292.2 -75.4 L 292.2 -75.4 L 292.2 -75.4 Q 295.3 -74.4 297.5 -72.6 L 297.5 -72.6 L 297.5 -72.6 Q 299.8 -70.8 301.2 -68 L 301.2 -68 L 301.2 -68 Q 302.5 -65.2 302.5 -61.8 Z M 307 -61.8 L 307 -33.7 L 304.7 -33.7 L 304.7 -61.8 L 304.7 -61.8 Q 304.7 -65.2 303.2 -68.3 L 303.2 -68.3 L 303.2 -68.3 Q 301.7 -71.5 299.1 -73.7 L 299.1 -73.7 L 299.1 -73.7 Q 296.6 -76 293 -77.3 L 293 -77.3 L 293 -77.3 Q 289.5 -78.7 285.7 -78.7 L 285.7 -78.7 L 285.7 -78.7 Q 280.4 -78.7 276.1 -76.7 L 276.1 -76.7 L 276.1 -76.7 Q 271.8 -74.7 269.2 -70.8 L 269.2 -70.8 L 269.2 -70.8 Q 266.6 -66.9 266.6 -61.8 L 266.6 -61.8 L 266.6 -33.7 L 264.4 -33.7 L 264.4 -61.8 L 264.4 -61.8 Q 264.4 -66.1 266 -69.7 L 266 -69.7 L 266 -69.7 Q 267.7 -73.4 270.6 -75.8 L 270.6 -75.8 L 270.6 -75.8 Q 273.5 -78.2 277.4 -79.6 L 277.4 -79.6 L 277.4 -79.6 Q 281.3 -80.9 285.7 -80.9 L 285.7 -80.9 L 285.7 -80.9 Q 293.4 -80.9 299.1 -77 L 299.1 -77 L 299.1 -77 Q 304.8 -80.9 312.5 -80.9 L 312.5 -80.9 L 312.5 -80.9 Q 316.9 -80.9 320.8 -79.6 L 320.8 -79.6 L 320.8 -79.6 Q 324.7 -78.2 327.6 -75.8 L 327.6 -75.8 L 327.6 -75.8 Q 330.5 -73.4 332.2 -69.7 L 332.2 -69.7 L 332.2 -69.7 Q 333.9 -66.1 333.9 -61.8 L 333.9 -61.8 L 333.9 -33.7 L 331.6 -33.7 L 331.6 -61.8 L 331.6 -61.8 Q 331.6 -66.9 329 -70.8 L 329 -70.8 L 329 -70.8 Q 326.4 -74.7 322.1 -76.7 L 322.1 -76.7 L 322.1 -76.7 Q 317.8 -78.7 312.5 -78.7 L 312.5 -78.7 L 312.5 -78.7 Q 305.9 -78.7 301 -75.6 L 301 -75.6 L 301 -75.6 Q 301.7 -74.9 302.6 -73.9 L 302.6 -73.9 L 302.6 -73.9 Q 306.9 -76.4 312.5 -76.4 L 312.5 -76.4 L 312.5 -76.4 Q 316 -76.4 319.1 -75.4 L 319.1 -75.4 L 319.1 -75.4 Q 322.1 -74.4 324.4 -72.6 L 324.4 -72.6 L 324.4 -72.6 Q 326.7 -70.8 328 -68 L 328 -68 L 328 -68 Q 329.4 -65.2 329.4 -61.8 L 329.4 -61.8 L 329.4 -33.7 L 327.1 -33.7 L 327.1 -61.8 L 327.1 -61.8 Q 327.1 -64.7 326 -67.1 L 326 -67.1 L 326 -67.1 Q 324.8 -69.5 322.8 -71 L 322.8 -71 L 322.8 -71 Q 320.8 -72.6 318.2 -73.4 L 318.2 -73.4 L 318.2 -73.4 Q 315.6 -74.2 312.5 -74.2 L 312.5 -74.2 L 312.5 -74.2 Q 307.6 -74.2 304 -72.2 L 304 -72.2 L 304 -72.2 Q 304.5 -71.3 305.1 -70.2 L 305.1 -70.2 L 305.1 -70.2 Q 308.1 -71.9 312.5 -71.9 L 312.5 -71.9 L 312.5 -71.9 Q 316 -71.9 318.7 -70.9 L 318.7 -70.9 L 318.7 -70.9 Q 321.5 -69.8 323.2 -67.4 L 323.2 -67.4 L 323.2 -67.4 Q 324.9 -65.1 324.9 -61.8 L 324.9 -61.8 L 324.9 -33.7 L 322.6 -33.7 L 322.6 -61.8 L 322.6 -61.8 Q 322.6 -65.8 319.8 -67.7 L 319.8 -67.7 L 319.8 -67.7 Q 317 -69.7 312.5 -69.7 L 312.5 -69.7 L 312.5 -69.7 Q 308.5 -69.7 306 -68.2 L 306 -68.2 L 306 -68.2 Q 306.4 -67 306.6 -65.9 L 306.6 -65.9 L 306.6 -65.9 Q 308.5 -67.4 312.5 -67.4 L 312.5 -67.4 L 312.5 -67.4 Q 320.4 -67.4 320.4 -61.8 L 320.4 -61.8 L 320.4 -33.7 L 318.1 -33.7 L 318.1 -61.8 L 318.1 -61.8 Q 318.1 -62.7 317.8 -63.4 L 317.8 -63.4 L 317.8 -63.4 Q 317.5 -64 317 -64.3 L 317 -64.3 L 317 -64.3 Q 316.6 -64.7 315.8 -64.9 L 315.8 -64.9 L 315.8 -64.9 Q 315 -65.1 314.3 -65.1 L 314.3 -65.1 L 314.3 -65.1 Q 313.6 -65.2 312.5 -65.2 L 312.5 -65.2 L 312.5 -65.2 Q 311.5 -65.2 310.8 -65.1 L 310.8 -65.1 L 310.8 -65.1 Q 310 -65.1 309.3 -64.9 L 309.3 -64.9 L 309.3 -64.9 Q 308.5 -64.7 308 -64.3 L 308 -64.3 L 308 -64.3 Q 307.6 -64 307.3 -63.4 L 307.3 -63.4 L 307.3 -63.4 Q 307 -62.7 307 -61.8 L 307 -61.8 Z M 359.9 -33.7 L 359.9 -85.4 L 362.2 -85.4 L 362.2 -33.7 L 359.9 -33.7 Z M 355.4 -33.7 L 355.4 -85.4 L 357.7 -85.4 L 357.7 -33.7 L 355.4 -33.7 Z M 350.9 -33.7 L 350.9 -85.4 L 353.2 -85.4 L 353.2 -33.7 L 350.9 -33.7 Z M 346.4 -33.7 L 346.4 -85.4 L 348.7 -85.4 L 348.7 -33.7 L 346.4 -33.7 Z M 396.9 -61.8 L 396.9 -61.8 L 396.9 -33.7 L 394.6 -33.7 L 394.6 -61.8 L 394.6 -61.8 Q 394.6 -62.7 394.3 -63.4 L 394.3 -63.4 L 394.3 -63.4 Q 394 -64 393.5 -64.3 L 393.5 -64.3 L 393.5 -64.3 Q 393.1 -64.7 392.3 -64.9 L 392.3 -64.9 L 392.3 -64.9 Q 391.5 -65.1 390.8 -65.1 L 390.8 -65.1 L 390.8 -65.1 Q 390.1 -65.2 389 -65.2 L 389 -65.2 L 389 -65.2 Q 388 -65.2 387.3 -65.1 L 387.3 -65.1 L 387.3 -65.1 Q 386.5 -65.1 385.8 -64.9 L 385.8 -64.9 L 385.8 -64.9 Q 385 -64.7 384.5 -64.3 L 384.5 -64.3 L 384.5 -64.3 Q 384.1 -64 383.8 -63.4 L 383.8 -63.4 L 383.8 -63.4 Q 383.5 -62.7 383.5 -61.8 L 383.5 -61.8 L 383.5 -33.7 L 381.2 -33.7 L 381.2 -61.8 L 381.2 -61.8 Q 381.2 -67.4 389 -67.4 L 389 -67.4 L 389 -67.4 Q 396.9 -67.4 396.9 -61.8 Z M 401.4 -61.8 L 401.4 -61.8 L 401.4 -33.7 L 399.1 -33.7 L 399.1 -61.8 L 399.1 -61.8 Q 399.1 -65.8 396.3 -67.7 L 396.3 -67.7 L 396.3 -67.7 Q 393.5 -69.7 389 -69.7 L 389 -69.7 L 389 -69.7 Q 384.6 -69.7 381.8 -67.7 L 381.8 -67.7 L 381.8 -67.7 Q 379 -65.8 379 -61.8 L 379 -61.8 L 379 -33.7 L 376.7 -33.7 L 376.7 -61.8 L 376.7 -61.8 Q 376.7 -65.1 378.4 -67.4 L 378.4 -67.4 L 378.4 -67.4 Q 380.1 -69.8 382.8 -70.9 L 382.8 -70.9 L 382.8 -70.9 Q 385.6 -71.9 389 -71.9 L 389 -71.9 L 389 -71.9 Q 392.5 -71.9 395.2 -70.9 L 395.2 -70.9 L 395.2 -70.9 Q 398 -69.8 399.7 -67.4 L 399.7 -67.4 L 399.7 -67.4 Q 401.4 -65.1 401.4 -61.8 Z M 405.9 -61.8 L 405.9 -61.8 L 405.9 -33.7 L 403.6 -33.7 L 403.6 -61.8 L 403.6 -61.8 Q 403.6 -64.7 402.5 -67.1 L 402.5 -67.1 L 402.5 -67.1 Q 401.3 -69.5 399.3 -71 L 399.3 -71 L 399.3 -71 Q 397.3 -72.6 394.7 -73.4 L 394.7 -73.4 L 394.7 -73.4 Q 392.1 -74.2 389 -74.2 L 389 -74.2 L 389 -74.2 Q 386 -74.2 383.4 -73.4 L 383.4 -73.4 L 383.4 -73.4 Q 380.8 -72.6 378.8 -71 L 378.8 -71 L 378.8 -71 Q 376.8 -69.5 375.6 -67.1 L 375.6 -67.1 L 375.6 -67.1 Q 374.5 -64.7 374.5 -61.8 L 374.5 -61.8 L 374.5 -33.7 L 372.2 -33.7 L 372.2 -61.8 L 372.2 -61.8 Q 372.2 -65.2 373.6 -68 L 373.6 -68 L 373.6 -68 Q 374.9 -70.8 377.2 -72.6 L 377.2 -72.6 L 377.2 -72.6 Q 379.5 -74.4 382.5 -75.4 L 382.5 -75.4 L 382.5 -75.4 Q 385.6 -76.4 389 -76.4 L 389 -76.4 L 389 -76.4 Q 392.5 -76.4 395.6 -75.4 L 395.6 -75.4 L 395.6 -75.4 Q 398.6 -74.4 400.9 -72.6 L 400.9 -72.6 L 400.9 -72.6 Q 403.2 -70.8 404.5 -68 L 404.5 -68 L 404.5 -68 Q 405.9 -65.2 405.9 -61.8 Z M 410.4 -61.8 L 410.4 -33.7 L 408.1 -33.7 L 408.1 -61.8 L 408.1 -61.8 Q 408.1 -65.2 406.6 -68.3 L 406.6 -68.3 L 406.6 -68.3 Q 405.1 -71.5 402.5 -73.7 L 402.5 -73.7 L 402.5 -73.7 Q 400 -76 396.4 -77.3 L 396.4 -77.3 L 396.4 -77.3 Q 392.9 -78.7 389 -78.7 L 389 -78.7 L 389 -78.7 Q 383.8 -78.7 379.5 -76.7 L 379.5 -76.7 L 379.5 -76.7 Q 375.2 -74.7 372.6 -70.8 L 372.6 -70.8 L 372.6 -70.8 Q 370 -66.9 370 -61.8 L 370 -61.8 L 370 -33.7 L 367.7 -33.7 L 367.7 -61.8 L 367.7 -61.8 Q 367.7 -66.1 369.4 -69.7 L 369.4 -69.7 L 369.4 -69.7 Q 371.1 -73.4 374 -75.8 L 374 -75.8 L 374 -75.8 Q 376.9 -78.2 380.8 -79.6 L 380.8 -79.6 L 380.8 -79.6 Q 384.7 -80.9 389 -80.9 L 389 -80.9 L 389 -80.9 Q 396.8 -80.9 402.5 -77 L 402.5 -77 L 402.5 -77 Q 408.2 -80.9 415.9 -80.9 L 415.9 -80.9 L 415.9 -80.9 Q 420.3 -80.9 424.2 -79.6 L 424.2 -79.6 L 424.2 -79.6 Q 428.1 -78.2 431 -75.8 L 431 -75.8 L 431 -75.8 Q 433.9 -73.4 435.5 -69.7 L 435.5 -69.7 L 435.5 -69.7 Q 437.2 -66.1 437.2 -61.8 L 437.2 -61.8 L 437.2 -33.7 L 435 -33.7 L 435 -61.8 L 435 -61.8 Q 435 -66.9 432.4 -70.8 L 432.4 -70.8 L 432.4 -70.8 Q 429.8 -74.7 425.5 -76.7 L 425.5 -76.7 L 425.5 -76.7 Q 421.2 -78.7 415.9 -78.7 L 415.9 -78.7 L 415.9 -78.7 Q 409.3 -78.7 404.4 -75.6 L 404.4 -75.6 L 404.4 -75.6 Q 405.1 -74.9 406 -73.9 L 406 -73.9 L 406 -73.9 Q 410.2 -76.4 415.9 -76.4 L 415.9 -76.4 L 415.9 -76.4 Q 419.4 -76.4 422.5 -75.4 L 422.5 -75.4 L 422.5 -75.4 Q 425.5 -74.4 427.8 -72.6 L 427.8 -72.6 L 427.8 -72.6 Q 430.1 -70.8 431.4 -68 L 431.4 -68 L 431.4 -68 Q 432.7 -65.2 432.7 -61.8 L 432.7 -61.8 L 432.7 -33.7 L 430.5 -33.7 L 430.5 -61.8 L 430.5 -61.8 Q 430.5 -64.7 429.3 -67.1 L 429.3 -67.1 L 429.3 -67.1 Q 428.2 -69.5 426.2 -71 L 426.2 -71 L 426.2 -71 Q 424.2 -72.6 421.6 -73.4 L 421.6 -73.4 L 421.6 -73.4 Q 419 -74.2 415.9 -74.2 L 415.9 -74.2 L 415.9 -74.2 Q 411 -74.2 407.3 -72.2 L 407.3 -72.2 L 407.3 -72.2 Q 407.9 -71.3 408.5 -70.2 L 408.5 -70.2 L 408.5 -70.2 Q 411.5 -71.9 415.9 -71.9 L 415.9 -71.9 L 415.9 -71.9 Q 419.4 -71.9 422.1 -70.9 L 422.1 -70.9 L 422.1 -70.9 Q 424.9 -69.8 426.5 -67.4 L 426.5 -67.4 L 426.5 -67.4 Q 428.2 -65.1 428.2 -61.8 L 428.2 -61.8 L 428.2 -33.7 L 426 -33.7 L 426 -61.8 L 426 -61.8 Q 426 -65.8 423.2 -67.7 L 423.2 -67.7 L 423.2 -67.7 Q 420.4 -69.7 415.9 -69.7 L 415.9 -69.7 L 415.9 -69.7 Q 411.9 -69.7 409.3 -68.2 L 409.3 -68.2 L 409.3 -68.2 Q 409.7 -67 410 -65.9 L 410 -65.9 L 410 -65.9 Q 411.9 -67.4 415.9 -67.4 L 415.9 -67.4 L 415.9 -67.4 Q 423.7 -67.4 423.7 -61.8 L 423.7 -61.8 L 423.7 -33.7 L 421.5 -33.7 L 421.5 -61.8 L 421.5 -61.8 Q 421.5 -62.7 421.2 -63.4 L 421.2 -63.4 L 421.2 -63.4 Q 420.9 -64 420.4 -64.3 L 420.4 -64.3 L 420.4 -64.3 Q 420 -64.7 419.2 -64.9 L 419.2 -64.9 L 419.2 -64.9 Q 418.4 -65.1 417.7 -65.1 L 417.7 -65.1 L 417.7 -65.1 Q 417 -65.2 415.9 -65.2 L 415.9 -65.2 L 415.9 -65.2 Q 414.9 -65.2 414.1 -65.1 L 414.1 -65.1 L 414.1 -65.1 Q 413.4 -65.1 412.7 -64.9 L 412.7 -64.9 L 412.7 -64.9 Q 411.9 -64.7 411.4 -64.3 L 411.4 -64.3 L 411.4 -64.3 Q 411 -64 410.7 -63.4 L 410.7 -63.4 L 410.7 -63.4 Q 410.4 -62.7 410.4 -61.8 L 410.4 -61.8 Z M 474.8 -33.7 L 474.8 -55.9 L 474.8 -55.9 Q 474.8 -59.9 472.3 -62.1 L 472.3 -62.1 L 472.3 -62.1 Q 469.9 -64.2 465.8 -64.2 L 465.8 -64.2 L 465.8 -64.2 Q 462.4 -64.2 459.9 -61.9 L 459.9 -61.9 L 459.9 -61.9 Q 457.4 -59.5 457.4 -56.2 L 457.4 -56.2 L 457.4 -56.2 Q 457.4 -54.3 457.9 -52.8 L 457.9 -52.8 L 457.9 -52.8 Q 458.4 -51.3 459.3 -50.4 L 459.3 -50.4 L 459.3 -50.4 Q 460.1 -49.4 461.3 -48.7 L 461.3 -48.7 L 461.3 -48.7 Q 462.5 -48.1 463.8 -47.8 L 463.8 -47.8 L 463.8 -47.8 Q 465.1 -47.5 466.6 -47.5 L 466.6 -47.5 L 466.6 -47.5 Q 470.1 -47.5 473.1 -49.3 L 473.1 -49.3 L 473.1 -47 L 473.1 -47 Q 470 -45.4 466.5 -45.4 L 466.5 -45.4 L 466.5 -45.4 Q 464.3 -45.4 462.3 -46 L 462.3 -46 L 462.3 -46 Q 460.3 -46.7 458.7 -47.9 L 458.7 -47.9 L 458.7 -47.9 Q 457.1 -49.1 456.1 -51.3 L 456.1 -51.3 L 456.1 -51.3 Q 455.2 -53.4 455.2 -56.2 L 455.2 -56.2 L 455.2 -56.2 Q 455.2 -60.5 458.2 -63.5 L 458.2 -63.5 L 458.2 -63.5 Q 461.2 -66.5 465.8 -66.5 L 465.8 -66.5 L 465.8 -66.5 Q 470.8 -66.5 473.9 -63.7 L 473.9 -63.7 L 473.9 -63.7 Q 477 -60.8 477 -55.9 L 477 -55.9 L 477 -33.7 L 474.8 -33.7 Z M 481.5 -55.9 L 481.5 -55.9 L 481.5 -33.7 L 479.3 -33.7 L 479.3 -55.9 L 479.3 -55.9 Q 479.3 -61.8 475.5 -65.3 L 475.5 -65.3 L 475.5 -65.3 Q 471.7 -68.7 465.8 -68.7 L 465.8 -68.7 L 465.8 -68.7 Q 460.3 -68.7 456.6 -65.1 L 456.6 -65.1 L 456.6 -65.1 Q 452.9 -61.4 452.9 -56.2 L 452.9 -56.2 L 452.9 -56.2 Q 452.9 -53 454 -50.5 L 454 -50.5 L 454 -50.5 Q 455.1 -47.9 457 -46.4 L 457 -46.4 L 457 -46.4 Q 459 -44.9 461.3 -44.1 L 461.3 -44.1 L 461.3 -44.1 Q 463.7 -43.3 466.3 -43.3 L 466.3 -43.3 L 466.3 -43.3 Q 469.9 -43.3 473.1 -44.9 L 473.1 -44.9 L 473.1 -42.6 L 473.1 -42.6 Q 469.7 -41.2 466.3 -41.2 L 466.3 -41.2 L 466.3 -41.2 Q 463.2 -41.2 460.4 -42.1 L 460.4 -42.1 L 460.4 -42.1 Q 457.6 -43.1 455.4 -44.9 L 455.4 -44.9 L 455.4 -44.9 Q 453.2 -46.7 452 -49.6 L 452 -49.6 L 452 -49.6 Q 450.7 -52.6 450.7 -56.2 L 450.7 -56.2 L 450.7 -56.2 Q 450.7 -62.3 455 -66.7 L 455 -66.7 L 455 -66.7 Q 459.4 -71 465.8 -71 L 465.8 -71 L 465.8 -71 Q 470.3 -71 473.9 -69.2 L 473.9 -69.2 L 473.9 -69.2 Q 477.4 -67.3 479.5 -63.9 L 479.5 -63.9 L 479.5 -63.9 Q 481.5 -60.4 481.5 -55.9 Z M 486 -55.9 L 486 -55.9 L 486 -33.7 L 483.8 -33.7 L 483.8 -55.9 L 483.8 -55.9 Q 483.8 -61 481.4 -65 L 481.4 -65 L 481.4 -65 Q 479.1 -69 475 -71.1 L 475 -71.1 L 475 -71.1 Q 470.9 -73.2 465.8 -73.2 L 465.8 -73.2 L 465.8 -73.2 Q 461 -73.2 457 -71 L 457 -71 L 457 -71 Q 453 -68.7 450.7 -64.7 L 450.7 -64.7 L 450.7 -64.7 Q 448.4 -60.8 448.4 -56.2 L 448.4 -56.2 L 448.4 -56.2 Q 448.4 -52.2 449.9 -48.9 L 449.9 -48.9 L 449.9 -48.9 Q 451.4 -45.6 453.8 -43.5 L 453.8 -43.5 L 453.8 -43.5 Q 456.3 -41.3 459.5 -40.2 L 459.5 -40.2 L 459.5 -40.2 Q 462.7 -39 466.1 -39 L 466.1 -39 L 466.1 -39 Q 469.7 -39 473.1 -40.5 L 473.1 -40.5 L 473.1 -38.2 L 473.1 -38.2 Q 469.5 -36.8 466.1 -36.8 L 466.1 -36.8 L 466.1 -36.8 Q 460.7 -36.8 456.1 -39.3 L 456.1 -39.3 L 456.1 -39.3 Q 451.6 -41.7 448.9 -46.2 L 448.9 -46.2 L 448.9 -46.2 Q 446.2 -50.7 446.2 -56.2 L 446.2 -56.2 L 446.2 -56.2 Q 446.2 -60.1 447.7 -63.7 L 447.7 -63.7 L 447.7 -63.7 Q 449.2 -67.2 451.8 -69.8 L 451.8 -69.8 L 451.8 -69.8 Q 454.4 -72.4 458 -74 L 458 -74 L 458 -74 Q 461.7 -75.5 465.8 -75.5 L 465.8 -75.5 L 465.8 -75.5 Q 471.5 -75.5 476.1 -73.1 L 476.1 -73.1 L 476.1 -73.1 Q 480.7 -70.6 483.4 -66.1 L 483.4 -66.1 L 483.4 -66.1 Q 486 -61.6 486 -55.9 Z M 490.5 -55.9 L 490.5 -55.9 L 490.5 -33.7 L 488.3 -33.7 L 488.3 -55.9 L 488.3 -55.9 Q 488.3 -62.2 485.3 -67.3 L 485.3 -67.3 L 485.3 -67.3 Q 482.4 -72.3 477.2 -75 L 477.2 -75 L 477.2 -75 Q 472.1 -77.7 465.8 -77.7 L 465.8 -77.7 L 465.8 -77.7 Q 459.7 -77.7 454.7 -74.8 L 454.7 -74.8 L 454.7 -74.8 Q 449.7 -71.9 446.8 -67 L 446.8 -67 L 446.8 -67 Q 443.9 -62 443.9 -56.2 L 443.9 -56.2 L 443.9 -56.2 Q 443.9 -52.3 445.2 -48.9 L 445.2 -48.9 L 445.2 -48.9 Q 446.4 -45.4 448.5 -42.9 L 448.5 -42.9 L 448.5 -42.9 Q 450.7 -40.3 453.5 -38.4 L 453.5 -38.4 L 453.5 -38.4 Q 456.3 -36.5 459.5 -35.6 L 459.5 -35.6 L 459.5 -35.6 Q 462.7 -34.6 466.1 -34.6 L 466.1 -34.6 L 466.1 -34.6 Q 469.8 -34.6 473.1 -36 L 473.1 -36 L 473.1 -33.7 L 473.1 -33.7 Q 469.6 -32.5 466 -32.5 L 466 -32.5 L 466 -32.5 Q 462.2 -32.5 458.6 -33.5 L 458.6 -33.5 L 458.6 -33.5 Q 455 -34.6 452 -36.7 L 452 -36.7 L 452 -36.7 Q 448.9 -38.7 446.6 -41.6 L 446.6 -41.6 L 446.6 -41.6 Q 444.3 -44.4 443 -48.2 L 443 -48.2 L 443 -48.2 Q 441.7 -52 441.7 -56.2 L 441.7 -56.2 L 441.7 -56.2 Q 441.7 -61 443.5 -65.4 L 443.5 -65.4 L 443.5 -65.4 Q 445.3 -69.8 448.5 -73 L 448.5 -73 L 448.5 -73 Q 451.7 -76.2 456.2 -78.1 L 456.2 -78.1 L 456.2 -78.1 Q 460.7 -80 465.8 -80 L 465.8 -80 L 465.8 -80 Q 471 -80 475.5 -78.2 L 475.5 -78.2 L 475.5 -78.2 Q 480.1 -76.5 483.4 -73.4 L 483.4 -73.4 L 483.4 -73.4 Q 486.7 -70.3 488.6 -65.7 L 488.6 -65.7 L 488.6 -65.7 Q 490.5 -61.2 490.5 -55.9 Z M 527.8 -49.8 L 527.8 -56.5 L 530 -56.5 L 530 -33.7 L 530 -33.7 Q 525 -31.4 519.7 -31.4 L 519.7 -31.4 L 519.7 -31.4 Q 514.6 -31.4 510.1 -33.4 L 510.1 -33.4 L 510.1 -33.4 Q 505.5 -35.4 502.2 -38.7 L 502.2 -38.7 L 502.2 -38.7 Q 498.9 -42 496.9 -46.6 L 496.9 -46.6 L 496.9 -46.6 Q 494.9 -51.2 494.9 -56.2 L 494.9 -56.2 L 494.9 -56.2 Q 494.9 -61.2 496.9 -65.8 L 496.9 -65.8 L 496.9 -65.8 Q 498.9 -70.4 502.2 -73.7 L 502.2 -73.7 L 502.2 -73.7 Q 505.5 -77 510.1 -79 L 510.1 -79 L 510.1 -79 Q 514.6 -80.9 519.7 -80.9 L 519.7 -80.9 L 519.7 -80.9 Q 525.4 -80.9 530.5 -78.5 L 530.5 -78.5 L 530.5 -78.5 Q 535.5 -76 539 -71.6 L 539 -71.6 L 537.2 -70.3 L 537.2 -70.3 Q 534 -74.2 529.5 -76.4 L 529.5 -76.4 L 529.5 -76.4 Q 524.9 -78.7 519.7 -78.7 L 519.7 -78.7 L 519.7 -78.7 Q 515.1 -78.7 510.9 -76.9 L 510.9 -76.9 L 510.9 -76.9 Q 506.8 -75.1 503.7 -72.1 L 503.7 -72.1 L 503.7 -72.1 Q 500.7 -69.1 499 -64.9 L 499 -64.9 L 499 -64.9 Q 497.2 -60.7 497.2 -56.2 L 497.2 -56.2 L 497.2 -56.2 Q 497.2 -51.6 499 -47.5 L 499 -47.5 L 499 -47.5 Q 500.7 -43.3 503.7 -40.3 L 503.7 -40.3 L 503.7 -40.3 Q 506.8 -37.2 510.9 -35.5 L 510.9 -35.5 L 510.9 -35.5 Q 515.1 -33.7 519.7 -33.7 L 519.7 -33.7 L 519.7 -33.7 Q 523.9 -33.7 527.8 -35.2 L 527.8 -35.2 L 527.8 -37.5 L 527.8 -37.5 Q 523.9 -35.9 519.7 -35.9 L 519.7 -35.9 L 519.7 -35.9 Q 515.5 -35.9 511.8 -37.5 L 511.8 -37.5 L 511.8 -37.5 Q 508 -39.2 505.3 -41.9 L 505.3 -41.9 L 505.3 -41.9 Q 502.6 -44.6 501 -48.3 L 501 -48.3 L 501 -48.3 Q 499.4 -52.1 499.4 -56.2 L 499.4 -56.2 L 499.4 -56.2 Q 499.4 -60.3 501 -64.1 L 501 -64.1 L 501 -64.1 Q 502.6 -67.8 505.3 -70.5 L 505.3 -70.5 L 505.3 -70.5 Q 508 -73.2 511.8 -74.8 L 511.8 -74.8 L 511.8 -74.8 Q 515.5 -76.4 519.7 -76.4 L 519.7 -76.4 L 519.7 -76.4 Q 524.4 -76.4 528.5 -74.4 L 528.5 -74.4 L 528.5 -74.4 Q 532.7 -72.4 535.5 -68.8 L 535.5 -68.8 L 533.8 -67.4 L 533.8 -67.4 Q 531.2 -70.6 527.5 -72.4 L 527.5 -72.4 L 527.5 -72.4 Q 523.9 -74.2 519.7 -74.2 L 519.7 -74.2 L 519.7 -74.2 Q 516 -74.2 512.7 -72.8 L 512.7 -72.8 L 512.7 -72.8 Q 509.4 -71.3 506.9 -68.9 L 506.9 -68.9 L 506.9 -68.9 Q 504.5 -66.5 503.1 -63.2 L 503.1 -63.2 L 503.1 -63.2 Q 501.7 -59.8 501.7 -56.2 L 501.7 -56.2 L 501.7 -56.2 Q 501.7 -52.5 503.1 -49.2 L 503.1 -49.2 L 503.1 -49.2 Q 504.5 -45.9 506.9 -43.5 L 506.9 -43.5 L 506.9 -43.5 Q 509.4 -41 512.7 -39.6 L 512.7 -39.6 L 512.7 -39.6 Q 516 -38.2 519.7 -38.2 L 519.7 -38.2 L 519.7 -38.2 Q 524 -38.2 527.8 -39.9 L 527.8 -39.9 L 527.8 -42.2 L 527.8 -42.2 Q 524 -40.4 519.7 -40.4 L 519.7 -40.4 L 519.7 -40.4 Q 515.4 -40.4 511.8 -42.5 L 511.8 -42.5 L 511.8 -42.5 Q 508.1 -44.7 506 -48.3 L 506 -48.3 L 506 -48.3 Q 503.9 -51.9 503.9 -56.2 L 503.9 -56.2 L 503.9 -56.2 Q 503.9 -60.5 506 -64.1 L 506 -64.1 L 506 -64.1 Q 508.1 -67.7 511.8 -69.8 L 511.8 -69.8 L 511.8 -69.8 Q 515.4 -71.9 519.7 -71.9 L 519.7 -71.9 L 519.7 -71.9 Q 523.3 -71.9 526.6 -70.4 L 526.6 -70.4 L 526.6 -70.4 Q 529.8 -68.8 532 -66 L 532 -66 L 530.2 -64.6 L 530.2 -64.6 Q 528.3 -67 525.6 -68.3 L 525.6 -68.3 L 525.6 -68.3 Q 522.8 -69.7 519.7 -69.7 L 519.7 -69.7 L 519.7 -69.7 Q 514.1 -69.7 510.1 -65.7 L 510.1 -65.7 L 510.1 -65.7 Q 506.2 -61.7 506.2 -56.2 L 506.2 -56.2 L 506.2 -56.2 Q 506.2 -50.6 510.1 -46.7 L 510.1 -46.7 L 510.1 -46.7 Q 514.1 -42.7 519.7 -42.7 L 519.7 -42.7 L 519.7 -42.7 Q 524 -42.7 527.8 -44.8 L 527.8 -44.8 L 527.8 -47.1 L 527.8 -47.1 Q 524.1 -44.9 519.7 -44.9 L 519.7 -44.9 L 519.7 -44.9 Q 515 -44.9 511.7 -48.2 L 511.7 -48.2 L 511.7 -48.2 Q 508.4 -51.5 508.4 -56.2 L 508.4 -56.2 L 508.4 -56.2 Q 508.4 -60.8 511.7 -64.1 L 511.7 -64.1 L 511.7 -64.1 Q 515 -67.4 519.7 -67.4 L 519.7 -67.4 L 519.7 -67.4 Q 522.3 -67.4 524.6 -66.3 L 524.6 -66.3 L 524.6 -66.3 Q 526.9 -65.2 528.5 -63.2 L 528.5 -63.2 L 526.7 -61.8 L 526.7 -61.8 Q 524 -65.2 519.7 -65.2 L 519.7 -65.2 L 519.7 -65.2 Q 516 -65.2 513.3 -62.5 L 513.3 -62.5 L 513.3 -62.5 Q 510.7 -59.9 510.7 -56.2 L 510.7 -56.2 L 510.7 -56.2 Q 510.7 -52.5 513.3 -49.8 L 513.3 -49.8 L 513.3 -49.8 Q 516 -47.2 519.7 -47.2 L 519.7 -47.2 L 519.7 -47.2 Q 524.5 -47.2 527.8 -49.8 L 527.8 -49.8 Z M 541.3 -33.7 L 541.3 -56.5 L 543.5 -56.5 L 543.5 -33.7 L 541.3 -33.7 Z M 536.8 -33.7 L 536.8 -56.5 L 539 -56.5 L 539 -33.7 L 536.8 -33.7 Z M 532.3 -33.7 L 532.3 -56.5 L 534.5 -56.5 L 534.5 -33.7 L 532.3 -33.7 Z M 560.3 -78.7 L 560.3 -33.7 L 558 -33.7 L 558 -78.7 L 560.3 -78.7 Z M 555.8 -78.7 L 555.8 -33.7 L 553.5 -33.7 L 553.5 -78.7 L 555.8 -78.7 Z M 551.3 -78.7 L 551.3 -33.7 L 549 -33.7 L 549 -78.7 L 551.3 -78.7 Z M 564.8 -50.6 L 564.8 -44.9 L 586.3 -44.9 L 586.3 -42.7 L 564.8 -42.7 L 564.8 -40.4 L 586.3 -40.4 L 586.3 -38.2 L 564.8 -38.2 L 564.8 -35.9 L 586.3 -35.9 L 586.3 -33.7 L 562.5 -33.7 L 562.5 -78.7 L 586.3 -78.7 L 586.3 -76.4 L 564.8 -76.4 L 564.8 -74.2 L 586.3 -74.2 L 586.3 -71.9 L 564.8 -71.9 L 564.8 -69.7 L 586.3 -69.7 L 586.3 -67.4 L 564.8 -67.4 L 564.8 -61.8 L 585.1 -61.8 L 585.1 -59.6 L 564.8 -59.6 L 564.8 -57.3 L 585.1 -57.3 L 585.1 -55.1 L 564.8 -55.1 L 564.8 -52.8 L 585.1 -52.8 L 585.1 -50.6 L 564.8 -50.6 Z M 612.4 -55.1 L 612.4 -55.1 L 608.9 -55.1 L 608.9 -55.1 Q 602.3 -55.1 598.8 -57.8 L 598.8 -57.8 L 598.8 -57.8 Q 595.2 -60.4 595.2 -65.1 L 595.2 -65.1 L 595.2 -65.1 Q 595.2 -69.5 599.4 -72.4 L 599.4 -72.4 L 599.4 -72.4 Q 603.5 -75.3 611 -75.3 L 611 -75.3 L 611 -75.3 Q 616 -75.3 620.4 -74 L 620.4 -74 L 620.4 -74 Q 624.7 -72.6 627.6 -70.1 L 627.6 -70.1 L 625.8 -68.7 L 625.8 -68.7 Q 623.3 -70.8 619.4 -71.9 L 619.4 -71.9 L 619.4 -71.9 Q 615.5 -73.1 611 -73.1 L 611 -73.1 L 611 -73.1 Q 604.5 -73.1 601 -70.8 L 601 -70.8 L 601 -70.8 Q 597.5 -68.6 597.5 -65.1 L 597.5 -65.1 L 597.5 -65.1 Q 597.5 -61.4 600.3 -59.4 L 600.3 -59.4 L 600.3 -59.4 Q 603.2 -57.3 608.9 -57.3 L 608.9 -57.3 L 612.3 -57.3 L 612.3 -57.3 Q 619 -57.3 622.5 -54.7 L 622.5 -54.7 L 622.5 -54.7 Q 626 -52 626 -47.3 L 626 -47.3 L 626 -47.3 Q 626 -42.9 621.9 -40 L 621.9 -40 L 621.9 -40 Q 617.7 -37.1 610.2 -37.1 L 610.2 -37.1 L 610.2 -37.1 Q 605.2 -37.1 600.9 -38.5 L 600.9 -38.5 L 600.9 -38.5 Q 596.6 -39.8 593.7 -42.3 L 593.7 -42.3 L 595.5 -43.7 L 595.5 -43.7 Q 598 -41.7 601.9 -40.5 L 601.9 -40.5 L 601.9 -40.5 Q 605.8 -39.3 610.2 -39.3 L 610.2 -39.3 L 610.2 -39.3 Q 616.8 -39.3 620.3 -41.6 L 620.3 -41.6 L 620.3 -41.6 Q 623.8 -43.8 623.8 -47.3 L 623.8 -47.3 L 623.8 -47.3 Q 623.8 -51.1 620.9 -53.1 L 620.9 -53.1 L 620.9 -53.1 Q 618.1 -55.1 612.4 -55.1 Z M 612.4 -50.6 L 612.4 -50.6 L 608.9 -50.6 L 608.9 -50.6 Q 600.2 -50.6 595.5 -54.5 L 595.5 -54.5 L 595.5 -54.5 Q 590.7 -58.5 590.7 -65.1 L 590.7 -65.1 L 590.7 -65.1 Q 590.7 -68.2 592.1 -70.8 L 592.1 -70.8 L 592.1 -70.8 Q 593.4 -73.5 595.9 -75.5 L 595.9 -75.5 L 595.9 -75.5 Q 598.5 -77.5 602.4 -78.7 L 602.4 -78.7 L 602.4 -78.7 Q 606.3 -79.8 611 -79.8 L 611 -79.8 L 611 -79.8 Q 617.1 -79.8 622.3 -78 L 622.3 -78 L 622.3 -78 Q 627.6 -76.2 631.1 -72.9 L 631.1 -72.9 L 629.3 -71.6 L 629.3 -71.6 Q 626.1 -74.4 621.3 -76 L 621.3 -76 L 621.3 -76 Q 616.5 -77.6 611 -77.6 L 611 -77.6 L 611 -77.6 Q 602.6 -77.6 597.8 -74 L 597.8 -74 L 597.8 -74 Q 593 -70.5 593 -65.1 L 593 -65.1 L 593 -65.1 Q 593 -59.5 597.1 -56.2 L 597.1 -56.2 L 597.1 -56.2 Q 601.2 -52.8 608.9 -52.8 L 608.9 -52.8 L 612.3 -52.8 L 612.3 -52.8 Q 621.5 -52.8 621.5 -47.3 L 621.5 -47.3 L 621.5 -47.3 Q 621.5 -44.8 618.7 -43.2 L 618.7 -43.2 L 618.7 -43.2 Q 615.9 -41.6 610.2 -41.6 L 610.2 -41.6 L 610.2 -41.6 Q 606.3 -41.6 602.9 -42.5 L 602.9 -42.5 L 602.9 -42.5 Q 599.5 -43.4 597.2 -45.2 L 597.2 -45.2 L 599 -46.5 L 599 -46.5 Q 602.9 -43.8 610.2 -43.8 L 610.2 -43.8 L 610.2 -43.8 Q 614.9 -43.8 617.1 -44.8 L 617.1 -44.8 L 617.1 -44.8 Q 619.3 -45.8 619.3 -47.3 L 619.3 -47.3 L 619.3 -47.3 Q 619.3 -49.1 617.8 -49.8 L 617.8 -49.8 L 617.8 -49.8 Q 616.2 -50.6 612.4 -50.6 Z M 612.4 -59.6 L 612.4 -59.6 L 608.9 -59.6 L 608.9 -59.6 Q 599.7 -59.6 599.7 -65.1 L 599.7 -65.1 L 599.7 -65.1 Q 599.7 -67.6 602.6 -69.2 L 602.6 -69.2 L 602.6 -69.2 Q 605.4 -70.8 611 -70.8 L 611 -70.8 L 611 -70.8 Q 615 -70.8 618.4 -69.9 L 618.4 -69.9 L 618.4 -69.9 Q 621.8 -69 624 -67.3 L 624 -67.3 L 622.3 -65.9 L 622.3 -65.9 Q 618.4 -68.6 611 -68.6 L 611 -68.6 L 611 -68.6 Q 606.4 -68.6 604.2 -67.6 L 604.2 -67.6 L 604.2 -67.6 Q 602 -66.7 602 -65.1 L 602 -65.1 L 602 -65.1 Q 602 -63.3 603.5 -62.6 L 603.5 -62.6 L 603.5 -62.6 Q 605 -61.8 608.9 -61.8 L 608.9 -61.8 L 612.4 -61.8 L 612.4 -61.8 Q 621.1 -61.8 625.8 -57.9 L 625.8 -57.9 L 625.8 -57.9 Q 630.5 -53.9 630.5 -47.3 L 630.5 -47.3 L 630.5 -47.3 Q 630.5 -44.3 629.2 -41.6 L 629.2 -41.6 L 629.2 -41.6 Q 627.9 -39 625.3 -37 L 625.3 -37 L 625.3 -37 Q 622.8 -34.9 618.9 -33.8 L 618.9 -33.8 L 618.9 -33.8 Q 615 -32.6 610.2 -32.6 L 610.2 -32.6 L 610.2 -32.6 Q 604.2 -32.6 599 -34.4 L 599 -34.4 L 599 -34.4 Q 593.7 -36.2 590.2 -39.5 L 590.2 -39.5 L 592 -40.9 L 592 -40.9 Q 595.2 -38 600 -36.4 L 600 -36.4 L 600 -36.4 Q 604.8 -34.8 610.2 -34.8 L 610.2 -34.8 L 610.2 -34.8 Q 618.7 -34.8 623.5 -38.4 L 623.5 -38.4 L 623.5 -38.4 Q 628.3 -42 628.3 -47.3 L 628.3 -47.3 L 628.3 -47.3 Q 628.3 -53 624.2 -56.3 L 624.2 -56.3 L 624.2 -56.3 Q 620 -59.6 612.4 -59.6 Z" fill="url(#editing-gradient-gradient)"></path></g></g><style>text {
  font-size: 64px;
  font-family: Arial Black;
  dominant-baseline: central;
  text-anchor: middle;
}</style></svg>